<svg width="326" height="346" viewBox="0 0 326 346" fill="none" xmlns="http://www.w3.org/2000/svg">
<path fill-rule="evenodd" clip-rule="evenodd" d="M303.304 233.395C313.231 208.652 316.954 181.435 310.749 154.217C307.026 135.66 299.581 119.576 289.653 104.73C302.063 96.0703 311.99 89.8845 311.99 89.8845C311.99 89.8845 269.798 18.129 174.246 16.8918V42.8723C165.56 42.8723 155.632 44.1094 146.946 45.3466C104.754 54.0067 71.2488 79.9872 52.6347 114.628C38.9844 107.205 29.057 102.256 29.057 102.256C29.057 102.256 -15.6167 172.774 26.5751 256.902L50.1529 244.53C56.3575 256.902 65.0441 269.273 74.9716 279.17L56.3575 297.728C56.3575 297.728 102.272 347.214 173.005 345.977C242.498 344.74 298.34 307.625 325.641 244.53L303.304 233.395ZM202.039 45.186C245.016 52.6605 272.03 83.8044 272.03 83.8044C272.03 83.8044 238.876 103.736 232.737 109.965C216.774 97.5077 202.039 93.7704 202.039 93.7704V45.186ZM42.0044 218.676L84.6291 196.2C84.6291 196.2 80.8681 181.217 85.8828 161.239C75.8534 158.742 43.258 137.515 43.258 137.515C43.258 137.515 29.4677 176.223 42.0044 218.676ZM117.651 148.891C113.928 146.42 105.242 141.48 94.0735 136.54C106.483 114.309 128.819 97.0175 157.359 90.8422C163.564 89.6071 169.768 88.372 175.973 88.372V114.309C175.973 114.309 209.477 111.838 230.572 142.715C231.554 142.064 232.881 141.155 234.485 140.056L234.486 140.055C238.964 136.987 245.6 132.441 252.908 127.894C259.113 137.775 264.076 148.891 266.558 161.241C270.281 179.767 267.799 198.293 261.595 214.349L236.777 204.469C236.777 204.469 228.09 227.935 200.791 239.051C200.791 239.051 162.323 256.342 130.06 225.465L111.446 243.991C105.242 237.816 99.0371 230.405 94.0735 221.76L117.651 209.409C117.651 209.409 100.278 181.002 117.651 148.891ZM97.0517 295.421C97.0517 295.421 137.951 328.815 201.16 316.447C248.256 306.552 274.283 279.342 289.156 255.842L244.538 237.29C244.538 237.29 229.665 260.79 191.245 269.448C191.245 269.448 156.542 275.632 130.515 260.79C126.797 266.974 97.0517 295.421 97.0517 295.421Z" fill="#FF7900" fill-opacity="1"/>
</svg>
